<?xml version="1.0" encoding="UTF-8"?>
<svg version="1.1" xmlns="http://www.w3.org/2000/svg" width="1024" height="1024">
<path d="M0 0 C337.92 0 675.84 0 1024 0 C1024 337.92 1024 675.84 1024 1024 C686.08 1024 348.16 1024 0 1024 C0 686.08 0 348.16 0 0 Z " fill="#FCFBFA" transform="translate(0,0)"/>
<path d="M0 0 C35.40051261 21.33799961 35.40051261 21.33799961 41.20458984 37.52832031 C43.22299496 46.6887743 41.02757237 53.02290734 37.70458984 61.59082031 C37.26179688 62.7595166 36.81900391 63.92821289 36.36279297 65.13232422 C31.9034084 76.77506009 27.05771753 88.25344043 22.09521484 99.68994141 C21.56154297 100.94025146 21.56154297 100.94025146 21.01708984 102.21582031 C20.64326172 103.08029785 20.26943359 103.94477539 19.88427734 104.83544922 C18.83022631 107.72874808 18.87499747 110.16083425 19.01708984 113.21582031 C26.10422999 113.447211 32.53153522 112.59446424 39.47802734 111.23925781 C41.11618156 110.93024536 41.11618156 110.93024536 42.78742981 110.61499023 C45.11881343 110.17454569 47.44953494 109.73058418 49.77963257 109.28338623 C55.85929146 108.11781825 61.94453149 106.98198572 68.02880859 105.84082031 C69.23231461 105.61429779 70.43582062 105.38777527 71.67579651 105.15438843 C81.11899546 103.37789999 90.56583354 101.62658205 100.03131104 99.97247314 C101.45866722 99.72181293 102.88541345 99.46764921 104.3114624 99.20965576 C125.59225482 95.36463761 125.59225482 95.36463761 132.16162109 99.30175781 C133.46671688 100.24615207 134.75164666 101.21892059 136.01708984 102.21582031 C136.70851074 102.72661133 137.39993164 103.23740234 138.11230469 103.76367188 C140.33709087 105.42336136 142.52367965 107.12394366 144.70458984 108.84082031 C145.48842041 109.45546143 146.27225098 110.07010254 147.07983398 110.70336914 C177.99426018 135.06296449 177.99426018 135.06296449 182.01708984 145.21582031 C182.86170761 152.62432474 180.46816267 156.68749827 176.76708984 162.96582031 C155.74705285 201.06542357 149.63228287 247.22341821 141.33740234 289.30566406 C141.03010445 290.86318893 141.03010445 290.86318893 140.71659851 292.45217896 C140.1437385 295.37220402 139.57890047 298.29365114 139.01708984 301.21582031 C138.82435486 302.20083527 138.63161987 303.18585022 138.43304443 304.20071411 C137.55578902 308.80618406 136.75559109 313.19411342 136.89208984 317.90332031 C136.91013672 318.7321875 136.92818359 319.56105469 136.94677734 320.41503906 C136.98158203 321.30642578 136.98158203 321.30642578 137.01708984 322.21582031 C137.690625 322.47161865 138.36416016 322.72741699 139.05810547 322.9909668 C160.57390209 331.22072234 178.19125996 339.93254383 195.14208984 355.65332031 C196.1465918 356.5845874 196.1465918 356.5845874 197.17138672 357.53466797 C203.89376492 363.87049284 209.95277644 370.4111273 214.64208984 378.40332031 C215.02179932 379.04551514 215.40150879 379.68770996 215.79272461 380.34936523 C222.36099772 391.75505428 228.32115276 406.06338131 225.55224609 419.46582031 C223.76546316 425.72484693 220.82536214 430.92928001 215.13037109 434.34863281 C210.11869821 436.53447049 206.29839665 436.49355583 201.01708984 435.21582031 C192.07811201 430.7463314 186.40489044 421.50169989 180.8059082 413.52661133 C172.47224781 401.69968504 163.47068755 391.67078869 151.76708984 383.15332031 C150.93459717 382.54278809 150.10210449 381.93225586 149.24438477 381.30322266 C143.40365816 377.07719503 137.55068565 373.29909024 131.01708984 370.21582031 C130.94232422 370.78945313 130.86755859 371.36308594 130.79052734 371.95410156 C125.00816266 409.31271259 104.37195745 445.01579792 74.51708984 468.15332031 C72.05956264 469.91769882 69.56356211 471.58267245 67.01708984 473.21582031 C66.12763672 473.80105469 65.23818359 474.38628906 64.32177734 474.98925781 C42.26797062 488.75035247 13.26481215 493.50120995 -12.10791016 487.71582031 C-29.7601077 483.14297886 -46.19412666 472.62871393 -55.96337891 457.05957031 C-70.00208494 430.95775441 -67.02873748 399.53090463 -58.92041016 371.96582031 C-49.76145277 342.61199322 -34.41238183 315.00642478 -19.99487305 287.94702148 C-14.54267845 277.95702157 -14.54267845 277.95702157 -10.98291016 267.21582031 C-11.55138672 267.19003906 -12.11986328 267.16425781 -12.70556641 267.13769531 C-18.49514376 266.71241751 -22.27306704 265.67611321 -26.98291016 262.21582031 C-28.77215983 259.38284166 -28.96614829 257.60972406 -29.10791016 254.27832031 C-27.23101836 249.16900377 -22.58695013 246.50033611 -17.80371094 244.14086914 C-15.55036867 243.21563087 -13.28573578 242.38471682 -10.98291016 241.59082031 C-10.16274414 241.29868652 -9.34257812 241.00655273 -8.49755859 240.70556641 C24.86998956 229.09582319 24.86998956 229.09582319 38.32958984 235.27832031 C43.82967095 238.3650113 47.37280495 242.22621141 50.39208984 247.71582031 C51.81624167 253.4124276 51.35762587 257.8315538 48.51318359 263.02832031 C46.77237357 265.57363001 44.81611593 267.7172734 42.70458984 269.96582031 C13.99253663 300.57514576 -9.64084799 341.15727697 -21.98291016 381.21582031 C-22.34255859 382.33601563 -22.70220703 383.45621094 -23.07275391 384.61035156 C-26.64058502 397.41837201 -27.55759123 414.29921087 -20.98291016 426.21582031 C-20.63228516 426.87453125 -20.28166016 427.53324219 -19.92041016 428.21191406 C-14.87544215 436.35743533 -5.95192188 440.11778099 2.87255859 442.77441406 C18.40032103 445.97047445 32.89425647 439.89791974 46.01708984 432.21582031 C49.24010222 430.08681636 52.15094627 427.80073477 55.01708984 425.21582031 C55.60361328 424.72082031 56.19013672 424.22582031 56.79443359 423.71582031 C75.63556757 406.62635639 84.93172511 376.51298949 89.01708984 352.21582031 C81.21255366 349.83777687 73.46708894 348.19149455 65.36865234 347.20019531 C64.69159744 347.11723206 64.01454254 347.0342688 63.31697083 346.9487915 C59.88793072 346.53597708 56.45747359 346.14900937 53.02270508 345.78710938 C44.99469191 344.87030997 37.14342895 343.96703768 30.95458984 338.34082031 C29.63796012 335.35645962 29.56371669 333.45419996 30.01708984 330.21582031 C35.31700112 320.03999066 44.40638599 315.97222759 54.90087891 312.61279297 C68.35331776 308.53700442 82.166616 307.84760458 96.01708984 310.21582031 C96.05609909 309.44401932 96.09510834 308.67221832 96.13529968 307.87702942 C98.05513996 270.10174994 100.29598751 232.45243616 104.16029358 194.81684875 C104.89408615 187.610148 105.55244425 180.39861817 106.16552734 173.18066406 C106.25178375 172.18531143 106.33804016 171.1899588 106.4269104 170.16444397 C106.64690242 167.51588386 106.84189552 164.86768573 107.01708984 162.21582031 C107.06907532 161.51280792 107.12106079 160.80979553 107.17462158 160.08547974 C107.29542678 157.3736556 107.25866956 155.60861486 105.81811523 153.26635742 C103.37697946 151.84244428 101.99344629 152.04972992 99.20068359 152.40722656 C98.21310059 152.52727051 97.22551758 152.64731445 96.20800781 152.77099609 C95.15500488 152.91778809 94.10200195 153.06458008 93.01708984 153.21582031 C91.9885791 153.34843262 90.96006836 153.48104492 89.90039062 153.61767578 C86.28853924 154.09914861 82.6843013 154.62099977 79.07958984 155.15332031 C78.39674927 155.25408875 77.71390869 155.35485718 77.01037598 155.4586792 C61.7753182 157.7191462 46.57018904 160.17733107 31.37155151 162.66946411 C28.64020739 163.11716614 25.90821235 163.56052156 23.17556763 164.00021362 C19.29267161 164.62554687 15.41262686 165.26753214 11.53271484 165.91113281 C10.35903854 166.09854538 9.18536224 166.28595795 7.97612 166.47904968 C-1.00740028 167.79693633 -1.00740028 167.79693633 -8.39453125 172.70947266 C-12.12009799 179.19280677 -15.34980528 185.92069202 -18.56900024 192.66574097 C-19.98251233 195.62509376 -21.40868358 198.57828416 -22.8341217 201.53190613 C-23.89727645 203.7351333 -24.95907269 205.93901034 -26.02050781 208.14306641 C-39.4196189 235.95506107 -54.80170811 260.69002858 -74.54296875 284.47167969 C-76.57045413 286.92748768 -78.55296712 289.41904899 -80.54541016 291.90332031 C-84.37566157 296.58709 -88.42197079 301.03937252 -92.55932617 305.45092773 C-95.19915745 308.26635755 -97.77331804 311.11879454 -100.29150391 314.04394531 C-104.30557496 318.65385503 -108.58866884 322.96851186 -112.92041016 327.27832031 C-113.6803125 328.04208984 -114.44021484 328.80585938 -115.22314453 329.59277344 C-119.43174377 333.79418463 -123.72701202 337.82835241 -128.23413086 341.70776367 C-130.40402139 343.57896482 -132.50321123 345.52184385 -134.60791016 347.46582031 C-140.81214506 353.04963173 -147.36090364 358.14494259 -153.98291016 363.21582031 C-155.09351807 364.07119385 -155.09351807 364.07119385 -156.2265625 364.94384766 C-173.99016201 378.59431269 -192.35933549 391.36777381 -211.98291016 402.21582031 C-212.69382812 402.61091797 -213.40474609 403.00601562 -214.13720703 403.41308594 C-216.26159746 404.57930566 -218.39914363 405.71544655 -220.54541016 406.84082031 C-221.17616455 407.18419434 -221.80691895 407.52756836 -222.45678711 407.88134766 C-227.25681179 410.31983906 -230.73063187 410.66985931 -235.98291016 410.21582031 C-238.40703266 408.17046695 -238.88743023 406.96007409 -239.28759766 403.84082031 C-238.88182871 400.34496474 -237.64272934 399.30218898 -235.10791016 396.90332031 C-234.28419922 396.1234375 -233.46048828 395.34355469 -232.61181641 394.54003906 C-229.34271085 391.64981944 -225.96609662 388.93381301 -222.52587891 386.25097656 C-219.08866935 383.50015294 -215.8467459 380.55832742 -212.60009766 377.58691406 C-210.50585378 375.68959163 -208.38581271 373.84028574 -206.24462891 371.99707031 C-201.60848901 367.94886244 -197.26003669 363.64003146 -192.92041016 359.27832031 C-192.15664063 358.51841797 -191.39287109 357.75851562 -190.60595703 356.97558594 C-186.41856613 352.78103098 -182.39779342 348.50073367 -178.53100586 344.0090332 C-176.4432988 341.59076978 -174.27562707 339.24985562 -172.10791016 336.90332031 C-168.01091088 332.41083393 -164.1217059 327.79674749 -160.30712891 323.06347656 C-158.31030996 320.61695385 -156.26777273 318.22016522 -154.19995117 315.83374023 C-146.29717445 306.67445508 -139.14567416 296.95755585 -131.98291016 287.21582031 C-131.40718262 286.43480957 -130.83145508 285.65379883 -130.23828125 284.84912109 C-109.72748423 256.96325387 -90.89203329 227.50347535 -75.98291016 196.21582031 C-75.52916016 195.26578125 -75.07541016 194.31574219 -74.60791016 193.33691406 C-72.55989124 188.95869547 -72.55989124 188.95869547 -71.98291016 184.21582031 C-78.66945703 184.72387176 -84.97571489 185.75242141 -91.46337891 187.43066406 C-92.32046951 187.64646622 -93.17756012 187.86226837 -94.06062317 188.08460999 C-96.7656241 188.76752197 -99.46796926 189.46035574 -102.17041016 190.15332031 C-103.99251636 190.61423747 -105.81478095 191.07452896 -107.63720703 191.53417969 C-116.76968825 193.82141565 -116.76968825 193.82141565 -125.84057617 196.3371582 C-133.4140602 198.45486227 -141.45686552 198.50467462 -148.54541016 194.90332031 C-155.24481302 190.70515863 -161.18272967 185.55676377 -166.98291016 180.21582031 C-167.55396484 179.69004395 -168.12501953 179.16426758 -168.71337891 178.62255859 C-183.75783854 164.58810622 -183.75783854 164.58810622 -186.98291016 156.21582031 C-186.88916505 152.80264609 -186.77067728 150.97597219 -184.27661133 148.56933594 C-181.46294889 146.90899059 -179.62863069 146.7976949 -176.36962891 146.68847656 C-175.17329834 146.62490967 -173.97696777 146.56134277 -172.74438477 146.49584961 C-172.08743622 146.46228363 -171.43048767 146.42871765 -170.75363159 146.39413452 C-145.51426017 144.9909818 -120.75256374 139.29309521 -96.01815796 134.37532043 C-88.60091854 132.90613659 -81.1789535 131.50577065 -73.72509766 130.23535156 C-72.92767654 130.09824265 -72.13025543 129.96113373 -71.30867004 129.81987 C-67.8302179 129.2241822 -64.35097368 128.64522181 -60.86547852 128.09155273 C-59.71442627 127.89537354 -58.56337402 127.69919434 -57.37744141 127.49707031 C-56.41684814 127.34302734 -55.45625488 127.18898438 -54.46655273 127.03027344 C-51.3031509 125.99290899 -50.04160446 124.83018231 -47.98291016 122.21582031 C-46.39784145 119.06235892 -46.39784145 119.06235892 -45.06494141 115.44238281 C-44.67704437 114.44109848 -44.67704437 114.44109848 -44.28131104 113.41958618 C-43.43963504 111.23138605 -42.61625766 109.03691172 -41.79541016 106.84082031 C-41.51011444 106.0868396 -41.22481873 105.33285889 -40.93087769 104.55603027 C-35.17491956 89.31748335 -30.36227752 73.90575037 -25.98291016 58.21582031 C-25.51667236 56.55752197 -25.51667236 56.55752197 -25.04101562 54.86572266 C-19.99680323 39.76265325 -19.99680323 39.76265325 -18.98291016 24.21582031 C-21.01671742 21.53463214 -23.4444676 19.41123009 -25.98291016 17.21582031 C-32.19665061 11.2845226 -32.19665061 11.2845226 -33.98291016 7.21582031 C-34.04541016 4.21582031 -34.04541016 4.21582031 -32.98291016 1.21582031 C-22.47852751 -9.28856233 -11.86710207 -6.89529537 0 0 Z " fill="#C81C17" transform="translate(493.98291015625,130.7841796875)"/>
<path d="M0 0 C61.67625899 0 61.67625899 0 72.6875 10.62890625 C79.47290128 17.94017613 81.60104472 25.15164347 81.47265625 35.04443359 C81.1108273 43.39206336 78.5535801 50.26307683 72.83984375 56.3984375 C67.81576147 60.77184246 62.54644519 63.80775533 56 65 C58.23081005 68.68615914 60.46298553 72.37148702 62.69656372 76.05596924 C63.47985055 77.34813387 64.26295307 78.64041025 65.04586792 79.93280029 C70.05072794 88.19216966 75.07402118 96.43635912 80.30615234 104.5546875 C83 108.78668523 83 108.78668523 83 111 C75.41 111 67.82 111 60 111 C58.62685486 108.59591987 57.25482063 106.19119991 55.88769531 103.78369141 C54.70425439 101.70496596 53.51338262 99.63045485 52.31542969 97.56005859 C49.44521085 92.55216472 46.74341835 87.60301633 44.5078125 82.27734375 C44.12222168 81.4056958 43.73663086 80.53404785 43.33935547 79.63598633 C42.25 77.125 42.25 77.125 41.39111328 74.6784668 C40.34729787 72.00076215 40.34729787 72.00076215 37 69 C31.39 68.67 25.78 68.34 20 68 C20 82.19 20 96.38 20 111 C13.4 111 6.8 111 0 111 C0 74.37 0 37.74 0 0 Z " fill="#161616" transform="translate(726,706)"/>
<path d="M0 0 C11.2616845 4.68470994 19.44162779 11.41765476 28 20 C28.97839844 20.88945312 28.97839844 20.88945312 29.9765625 21.796875 C46.51193073 37.00000977 62.96520175 64.66849691 64.3125 87.39453125 C64.36485315 88.99187303 64.40647758 90.58960163 64.4375 92.1875 C64.47121704 93.31067627 64.47121704 93.31067627 64.50561523 94.45654297 C64.47911335 100.61177555 62.82739357 105.93356849 58.58789062 110.53149414 C53.43392189 115.07091315 48.92007781 116.45631445 42.1953125 116.234375 C35.81583509 115.553292 32.04601749 111.57381201 28.07421875 106.8984375 C22.24059058 98.74673863 18.49843449 89.23196723 14.5625 80.0625 C8.80924091 66.68547221 2.26912063 54.30863157 -7 43 C-7.64606201 42.1958667 -7.64606201 42.1958667 -8.30517578 41.37548828 C-17.36918174 30.10999042 -27.26850856 21.26264888 -39.19970703 13.07202148 C-39.90595215 12.58677002 -40.61219727 12.10151855 -41.33984375 11.6015625 C-41.97269287 11.17182129 -42.60554199 10.74208008 -43.25756836 10.29931641 C-45.05704913 8.95745895 -46.5716965 7.73645295 -48 6 C-48.64214047 0.94314381 -48.64214047 0.94314381 -48 -2 C-45.75 -4.375 -45.75 -4.375 -43 -6 C-42.4121875 -6.350625 -41.824375 -6.70125 -41.21875 -7.0625 C-28.2850835 -12.52742951 -11.93776484 -4.79448611 0 0 Z " fill="#C81C17" transform="translate(728,351)"/>
<path d="M0 0 C7.59 0 15.18 0 23 0 C25.68197849 6.03445161 28.26147225 12.04047749 30.66015625 18.18359375 C31.17412209 19.49367149 31.17412209 19.49367149 31.69847107 20.83021545 C32.8223834 23.69831242 33.94272691 26.56778465 35.0625 29.4375 C35.44873535 30.42556641 35.8349707 31.41363281 36.23291016 32.43164062 C42.74155522 49.08823046 49.14691057 65.78351492 55.5 82.5 C55.9143631 83.58957001 56.3287262 84.67914001 56.75564575 85.80172729 C57.93255203 88.89842475 59.10739849 91.99589346 60.28125 95.09375 C60.62941269 96.01052017 60.97757538 96.92729034 61.33628845 97.87184143 C61.65908279 98.7255986 61.98187714 99.57935577 62.31445312 100.45898438 C62.59325317 101.19515991 62.87205322 101.93133545 63.15930176 102.68981934 C64.16039622 105.44075772 65.07426504 108.22279513 66 111 C58.74 111 51.48 111 44 111 C42.49400714 107.06469723 40.99498332 103.12698307 39.5 99.1875 C38.85611328 97.50817383 38.85611328 97.50817383 38.19921875 95.79492188 C37.79316406 94.72177734 37.38710938 93.64863281 36.96875 92.54296875 C36.59169922 91.55321045 36.21464844 90.56345215 35.82617188 89.54370117 C35 87 35 87 35 84 C19.82 84.33 4.64 84.66 -11 85 C-13.9199674 93.18139204 -13.9199674 93.18139204 -16.83374023 101.36499023 C-17.19669189 102.37762939 -17.55964355 103.39026855 -17.93359375 104.43359375 C-18.4913147 105.99678345 -18.4913147 105.99678345 -19.06030273 107.59155273 C-20 110 -20 110 -21 111 C-22.56172745 111.08685603 -24.12729344 111.10702219 -25.69140625 111.09765625 C-26.63564453 111.09443359 -27.57988281 111.09121094 -28.55273438 111.08789062 C-29.54595703 111.07951172 -30.53917969 111.07113281 -31.5625 111.0625 C-32.55958984 111.05798828 -33.55667969 111.05347656 -34.58398438 111.04882812 C-37.05604849 111.03700007 -39.52799518 111.02051849 -42 111 C-41.26042252 106.23856351 -39.59190257 101.94106616 -37.88671875 97.4609375 C-37.40398499 96.18010536 -37.40398499 96.18010536 -36.91149902 94.87339783 C-35.84124868 92.0389057 -34.76469333 89.20686024 -33.6875 86.375 C-33.31839508 85.40090179 -32.94929016 84.42680359 -32.56900024 83.42318726 C-21.99077533 55.50898554 -11.08642765 27.71606913 0 0 Z " fill="#141313" transform="translate(455,706)"/>
<path d="M0 0 C7.59 0 15.18 0 23 0 C26.34054282 7.210577 29.43410621 14.44367193 32.265625 21.8671875 C32.65685043 22.88499802 33.04807587 23.90280853 33.45115662 24.95146179 C34.72091035 28.25798801 35.98562046 31.56641544 37.25 34.875 C38.13240695 37.17706383 39.01497738 39.479065 39.89770508 41.78100586 C47.28496612 61.06257902 54.60589151 80.36940808 61.88671875 99.69140625 C62.18992538 100.49519211 62.49313202 101.29897797 62.80552673 102.12712097 C63.91380044 105.07266036 65.00468154 108.01404462 66 111 C58.74 111 51.48 111 44 111 C40.7 102.42 37.4 93.84 34 85 C18.82 84.67 3.64 84.34 -12 84 C-12.33 85.98 -12.66 87.96 -13 90 C-13.56659957 91.74335821 -14.18324837 93.47121009 -14.84765625 95.1796875 C-15.17000244 96.01741699 -15.49234863 96.85514648 -15.82446289 97.71826172 C-16.23301514 98.75998535 -16.64156738 99.80170898 -17.0625 100.875 C-19.0115625 105.886875 -19.0115625 105.886875 -21 111 C-28.26 111 -35.52 111 -43 111 C-39.34425021 101.32917291 -35.67538091 91.66337947 -32 82 C-31.66623352 81.12220886 -31.33246704 80.24441772 -30.98858643 79.34002686 C-20.89361923 52.79682576 -10.65313083 26.32453711 0 0 Z " fill="#131212" transform="translate(865,706)"/>
<path d="M0 0 C7.59 0 15.18 0 23 0 C27.55065549 10.75771395 31.81344202 21.6204193 36.0625 32.5 C36.44396179 33.47568939 36.82542358 34.45137878 37.21844482 35.45663452 C43.90234649 52.55657356 50.52658658 69.67941163 57.125 86.8125 C57.57191193 87.97152832 58.01882385 89.13055664 58.47927856 90.32470703 C59.7406514 93.59726925 60.99965907 96.87073018 62.2578125 100.14453125 C62.82835106 101.62400993 62.82835106 101.62400993 63.41041565 103.13337708 C63.75338181 104.02755844 64.09634796 104.92173981 64.44970703 105.84301758 C64.7507132 106.62582596 65.05171936 107.40863434 65.36184692 108.21516418 C66 110 66 110 66 111 C58.74 111 51.48 111 44 111 C42.49400714 107.06469723 40.99498332 103.12698307 39.5 99.1875 C38.85611328 97.50817383 38.85611328 97.50817383 38.19921875 95.79492188 C37.79316406 94.72177734 37.38710938 93.64863281 36.96875 92.54296875 C36.59169922 91.55321045 36.21464844 90.56345215 35.82617188 89.54370117 C35 87 35 87 35 84 C19.82 84.33 4.64 84.66 -11 85 C-13.97 93.58 -16.94 102.16 -20 111 C-27.26 111 -34.52 111 -42 111 C-40.03154845 104.43849484 -38.00977098 98.0732099 -35.5859375 91.69140625 C-35.25878754 90.82285507 -34.93163757 89.95430389 -34.59457397 89.05943298 C-33.52534635 86.22560517 -32.45053316 83.39394011 -31.375 80.5625 C-31.00572388 79.58700195 -30.63644775 78.61150391 -30.25598145 77.60644531 C-22.91694136 58.22463964 -15.32323875 38.94677604 -7.65335083 19.69395447 C-5.04971441 13.14888513 -2.51169166 6.58102157 0 0 Z " fill="#131212" transform="translate(257,706)"/>
<path d="M0 0 C6.6 0 13.2 0 20 0 C20 14.52 20 29.04 20 44 C37.82 44 55.64 44 74 44 C74 29.48 74 14.96 74 0 C80.6 0 87.2 0 94 0 C94 36.63 94 73.26 94 111 C87.4 111 80.8 111 74 111 C74 94.83 74 78.66 74 62 C56.18 62 38.36 62 20 62 C20 78.17 20 94.34 20 111 C13.4 111 6.8 111 0 111 C0 74.37 0 37.74 0 0 Z " fill="#10100F" transform="translate(545,706)"/>
<path d="M0 0 C6.93 0 13.86 0 21 0 C21.33 15.51 21.66 31.02 22 47 C25.63 43.04 29.26 39.08 33 35 C36.75 31.25 36.75 31.25 38.41015625 29.61889648 C40.0796031 27.91894224 41.63435434 26.15430545 43.1875 24.34765625 C47.09685861 19.85344109 51.15660243 15.51382411 55.25 11.1875 C56.30960938 10.06311523 56.30960938 10.06311523 57.390625 8.91601562 C61.12638475 4.95738384 61.12638475 4.95738384 63 3 C63.67397827 2.15115234 63.67397827 2.15115234 64.36157227 1.28515625 C66.79290354 -0.62194073 68.71039572 -0.3394356 71.76171875 -0.29296875 C72.87998047 -0.28330078 73.99824219 -0.27363281 75.15039062 -0.26367188 C76.90125977 -0.2259668 76.90125977 -0.2259668 78.6875 -0.1875 C79.86634766 -0.17396484 81.04519531 -0.16042969 82.25976562 -0.14648438 C85.17363411 -0.11109326 88.08658945 -0.06171809 91 0 C86.95895204 4.79100821 82.79452368 9.43556996 78.5 14 C77.26944324 15.31241748 76.03897722 16.62492006 74.80859375 17.9375 C73.86862549 18.93910156 73.86862549 18.93910156 72.90966797 19.9609375 C71.00909727 21.99028633 69.11482106 24.02531346 67.22265625 26.0625 C66.6090625 26.7225 65.99546875 27.3825 65.36328125 28.0625 C64.20224583 29.31168344 63.04202704 30.56162664 61.8828125 31.8125 C59.08569468 34.81755703 56.24948554 37.76751606 53.3359375 40.66015625 C50.8071978 43.17169364 48.38714014 45.73332678 46.0625 48.4375 C45.47597656 49.11683594 44.88945312 49.79617188 44.28515625 50.49609375 C43.86105469 50.99238281 43.43695313 51.48867188 43 52 C50.1541311 62.01578353 58.47956532 71.15106835 66.75 80.25 C70.54957133 84.43714145 74.10662842 88.78796903 77.65625 93.1875 C80.93831501 97.12597801 84.42078545 100.85714135 87.93359375 104.58984375 C89.75949469 106.71948625 90.82063617 108.49546369 92 111 C69.95742225 112.62537442 69.95742225 112.62537442 63.65234375 109.16015625 C61.3972294 106.56943505 59.71432618 103.97309715 58 101 C56.59294394 99.20488157 55.15422065 97.43420761 53.6875 95.6875 C52.94886719 94.77355469 52.21023437 93.85960937 51.44921875 92.91796875 C48.73052562 89.67895158 45.88942738 86.58596849 43 83.5 C38.50495406 78.69803769 34.2422873 73.77368489 30.1328125 68.6328125 C27.48761976 65.36750132 24.73481877 62.19062189 22 59 C21.67 76.16 21.34 93.32 21 111 C14.07 111 7.14 111 0 111 C0 74.37 0 37.74 0 0 Z " fill="#151515" transform="translate(107,706)"/>
<path d="M0 0 C29.7 0 59.4 0 90 0 C89.67 5.61 89.34 11.22 89 17 C78.11 17 67.22 17 56 17 C56 48.02 56 79.04 56 111 C49.4 111 42.8 111 36 111 C36 79.98 36 48.96 36 17 C24.12 17 12.24 17 0 17 C0 11.39 0 5.78 0 0 Z " fill="#121212" transform="translate(322,706)"/>
<path d="M0 0 C7.59 0 15.18 0 23 0 C25 4 25 4 25 8 C24.67 8.66 24.34 9.32 24 10 C23.01 9.34 22.02 8.68 21 8 C18.93089407 7.97250522 18.93089407 7.97250522 16.8125 8.375 C15.554375 8.58125 14.29625 8.7875 13 9 C12.67 10.32 12.34 11.64 12 13 C12.99 13.33 13.98 13.66 15 14 C15 14.99 15 15.98 15 17 C15.99 17.66 16.98 18.32 18 19 C17.649375 19.61875 17.29875 20.2375 16.9375 20.875 C16.628125 21.57625 16.31875 22.2775 16 23 C16.495 23.99 16.495 23.99 17 25 C17.22622081 26.70363822 17.40888473 28.41328701 17.5625 30.125 C17.64628906 31.03507813 17.73007812 31.94515625 17.81640625 32.8828125 C17.90728516 33.93082031 17.90728516 33.93082031 18 35 C17.34 35 16.68 35 16 35 C14.68 31.37 13.36 27.74 12 24 C11.55084229 25.20124512 11.10168457 26.40249023 10.63891602 27.64013672 C8.97579736 32.08716587 7.31123914 36.533655 5.64624023 40.97998047 C4.92514246 42.90626507 4.20443778 44.83269687 3.48413086 46.75927734 C2.45008435 49.52480022 1.41463595 52.28979463 0.37890625 55.0546875 C0.05596085 55.9193161 -0.26698456 56.7839447 -0.59971619 57.67477417 C-0.89995193 58.47545319 -1.20018768 59.2761322 -1.50952148 60.10107422 C-1.77377426 60.8072287 -2.03802704 61.51338318 -2.31028748 62.24093628 C-3 64 -3 64 -4 66 C6.56 66 17.12 66 28 66 C28 66.33 28 66.66 28 67 C21.73 67.33 15.46 67.66 9 68 C9 69.65 9 71.3 9 73 C8.01 73.33 7.02 73.66 6 74 C5.67 76.31 5.34 78.62 5 81 C14.57 81.33 24.14 81.66 34 82 C34.33 82.66 34.66 83.32 35 84 C19.82 84.33 4.64 84.66 -11 85 C-13.9199674 93.18139204 -13.9199674 93.18139204 -16.83374023 101.36499023 C-17.19669189 102.37762939 -17.55964355 103.39026855 -17.93359375 104.43359375 C-18.4913147 105.99678345 -18.4913147 105.99678345 -19.06030273 107.59155273 C-20 110 -20 110 -21 111 C-22.56172745 111.08685603 -24.12729344 111.10702219 -25.69140625 111.09765625 C-26.63564453 111.09443359 -27.57988281 111.09121094 -28.55273438 111.08789062 C-29.54595703 111.07951172 -30.53917969 111.07113281 -31.5625 111.0625 C-32.55958984 111.05798828 -33.55667969 111.05347656 -34.58398438 111.04882812 C-37.05604849 111.03700007 -39.52799518 111.02051849 -42 111 C-41.26042252 106.23856351 -39.59190257 101.94106616 -37.88671875 97.4609375 C-37.40398499 96.18010536 -37.40398499 96.18010536 -36.91149902 94.87339783 C-35.84124868 92.0389057 -34.76469333 89.20686024 -33.6875 86.375 C-33.31839508 85.40090179 -32.94929016 84.42680359 -32.56900024 83.42318726 C-21.99077533 55.50898554 -11.08642765 27.71606913 0 0 Z M18 17 C20 18 20 18 20 18 Z " fill="#121212" transform="translate(455,706)"/>
<path d="M0 0 C6.27 0 12.54 0 19 0 C19 35.64 19 71.28 19 108 C10.585 108.495 10.585 108.495 2 109 C1.67 93.16 1.34 77.32 1 61 C-16.82 60.67 -34.64 60.34 -53 60 C-49.64880481 57.76586987 -48.5822245 57.76152238 -44.67578125 57.8046875 C-43.13374023 57.81435547 -43.13374023 57.81435547 -41.56054688 57.82421875 C-40.48869141 57.84097656 -39.41683594 57.85773437 -38.3125 57.875 C-37.22904297 57.88402344 -36.14558594 57.89304687 -35.02929688 57.90234375 C-32.3526429 57.9259266 -29.67643203 57.95883874 -27 58 C-26.57074219 57.03320312 -26.57074219 57.03320312 -26.1328125 56.046875 C-25 54 -25 54 -22.875 53.25 C-22.25625 53.1675 -21.6375 53.085 -21 53 C-21.99 52.505 -21.99 52.505 -23 52 C-20.375 48.125 -20.375 48.125 -17 47 C-18.01425049 46.98541748 -19.02850098 46.97083496 -20.07348633 46.95581055 C-23.83654029 46.89783747 -27.59899521 46.82060541 -31.36157227 46.73754883 C-32.99005409 46.70429464 -34.61865131 46.67626416 -36.24731445 46.65356445 C-38.58855361 46.62002643 -40.92873486 46.56771415 -43.26953125 46.51171875 C-43.99775589 46.50532883 -44.72598053 46.4989389 -45.47627258 46.49235535 C-49.8498213 46.36513508 -50.75294185 46.24705815 -54 43 C-36.18 43 -18.36 43 0 43 C0 28.81 0 14.62 0 0 Z " fill="#141414" transform="translate(619,707)"/>
<path d="M0 0 C6.6 0 13.2 0 20 0 C20 36.63 20 73.26 20 111 C13.4 111 6.8 111 0 111 C0 74.37 0 37.74 0 0 Z " fill="#111111" transform="translate(673,706)"/>
<path d="M0 0 C3.14477191 1.57238595 3.51972664 4.71768129 4.6015625 7.87890625 C4.8428891 8.5655687 5.0842157 9.25223114 5.33285522 9.95970154 C6.1037778 12.15830073 6.86447467 14.36028527 7.625 16.5625 C8.14516485 18.05166596 8.66598982 19.54060152 9.1875 21.02929688 C10.46601502 24.68356616 11.73536891 28.34090391 13 32 C13.66 31.67 14.32 31.34 15 31 C15.66 31.66 16.32 32.32 17 33 C17.99 33 18.98 33 20 33 C20 32.34 20 31.68 20 31 C20.99 30.67 21.98 30.34 23 30 C22.505 27.03 22.505 27.03 22 24 C22.99 24.33 23.98 24.66 25 25 C24.79375 24.38125 24.5875 23.7625 24.375 23.125 C24.189375 22.073125 24.189375 22.073125 24 21 C24.66 20.34 25.32 19.68 26 19 C26.99 19 27.98 19 29 19 C29.22248917 19.5864328 29.44497833 20.1728656 29.67420959 20.77706909 C32.02630285 26.97622853 34.37944653 33.17498854 36.7331543 39.37353516 C37.60711233 41.67551975 38.48081767 43.9776003 39.35424805 46.27978516 C40.62219061 49.62168311 41.89089742 52.96328925 43.16015625 56.3046875 C43.57302887 57.39166931 43.98590149 58.47865112 44.4112854 59.59857178 C47.2383701 67.0292888 50.10017056 74.4457291 53.01686096 81.84176636 C55 86.8946525 55 86.8946525 55 88 C47.74 88 40.48 88 33 88 C31.68 84.679375 30.36 81.35875 29 77.9375 C28.58234375 76.90488037 28.1646875 75.87226074 27.734375 74.80834961 C25.72044852 69.63018099 24.5063789 65.56095024 25 60 C24.37955811 59.98541748 23.75911621 59.97083496 23.11987305 59.95581055 C20.30845367 59.88133412 17.49822251 59.78467436 14.6875 59.6875 C13.71103516 59.66494141 12.73457031 59.64238281 11.72851562 59.61914062 C10.32182617 59.5659668 10.32182617 59.5659668 8.88671875 59.51171875 C8.02264404 59.48553467 7.15856934 59.45935059 6.26831055 59.43237305 C3.57036709 58.91810571 2.6101698 58.19897073 1 56 C1.3125 53.8125 1.3125 53.8125 2 52 C4.31 51.34 6.62 50.68 9 50 C9.33 48.35 9.66 46.7 10 45 C1.75 45 -6.5 45 -15 45 C-15 44.67 -15 44.34 -15 44 C-4.44 43.67 6.12 43.34 17 43 C17 42.34 17 41.68 17 41 C16.67 41.66 16.34 42.32 16 43 C5.77 43 -4.46 43 -15 43 C-13.15254454 36.84181513 -11.29838163 30.81860445 -9.08203125 24.8046875 C-8.81992355 24.08636749 -8.55781586 23.36804749 -8.2877655 22.62796021 C-7.46535592 20.37598293 -6.63901232 18.12547428 -5.8125 15.875 C-5.2477835 14.33082546 -4.68332832 12.78655533 -4.11914062 11.2421875 C-2.74910272 7.49368325 -1.37553937 3.74648876 0 0 Z " fill="#151414" transform="translate(268,729)"/>
<path d="M0 0 C61.67625899 0 61.67625899 0 72.6875 10.62890625 C79.47290128 17.94017613 81.60104472 25.15164347 81.47265625 35.04443359 C81.06870633 44.36382159 77.8394733 51.65282812 71 58 C68.25 60 68.25 60 66 61 C65.34 60.67 64.68 60.34 64 60 C65.52206009 57.37098712 66.84365964 55.15634036 69 53 C68.34 53 67.68 53 67 53 C66.34 52.01 65.68 51.02 65 50 C63.515 50.495 63.515 50.495 62 51 C61.26676204 53.01508358 61.26676204 53.01508358 61 55 C60.34 55 59.68 55 59 55 C58.814375 54.1028125 58.814375 54.1028125 58.625 53.1875 C58.04524015 50.73768652 58.04524015 50.73768652 56 48 C54.02 48.66 52.04 49.32 50 50 C51.83558412 48.16441588 53.6810487 46.35217319 55.5625 44.5625 C58.8086676 41.14986226 59.86086559 39.44699791 60.3125 34.75 C59.8423854 29.10862484 58.69095331 24.73665475 54.6875 20.625 C51.85429012 18.91189635 49.15123779 17.98038509 46 17 C45.34 16.34 44.68 15.68 44 15 C41.27530214 14.53340269 38.61820198 14.16400746 35.875 13.875 C35.12089844 13.78863281 34.36679687 13.70226562 33.58984375 13.61328125 C31.72742873 13.40110739 29.86381069 13.19954237 28 13 C28.20625 11.9275 28.4125 10.855 28.625 9.75 C29.35506826 5.82014819 29.35506826 5.82014819 27 2 C14.13 1.505 14.13 1.505 1 1 C1.33 36.64 1.66 72.28 2 109 C7.28 109 12.56 109 18 109 C18 95.14 18 81.28 18 67 C18.33 67 18.66 67 19 67 C19.33 81.52 19.66 96.04 20 111 C13.4 111 6.8 111 0 111 C0 74.37 0 37.74 0 0 Z " fill="#131212" transform="translate(726,706)"/>
<path d="M0 0 C6.1875 -0.0928125 6.1875 -0.0928125 12.5 -0.1875 C13.78455078 -0.21481201 15.06910156 -0.24212402 16.39257812 -0.27026367 C30.11095458 -0.36950208 30.11095458 -0.36950208 35.51318359 4.31103516 C39.38397449 8.57875907 40.71228803 12.78050763 41.4375 18.375 C40.85775859 23.17857165 39.05326568 26.29425563 36 30 C31.02218658 33.8578054 25.96118009 34.12788759 19.82421875 34.09765625 C18.25933716 34.09390991 18.25933716 34.09390991 16.6628418 34.09008789 C14.69504761 34.07643188 14.69504761 34.07643188 12.6875 34.0625 C8.500625 34.041875 4.31375 34.02125 0 34 C0 22.78 0 11.56 0 0 Z " fill="#FBFAF9" transform="translate(746,722)"/>
<path d="M0 0 C3.48143605 1.74071802 4.01886501 6.01269977 5.2578125 9.5234375 C5.56572723 10.38055328 5.87364197 11.23766907 6.19088745 12.12075806 C6.84151753 13.9370083 7.48856344 15.75454582 8.13232422 17.57324219 C9.11949362 20.35945863 10.11935916 23.14086663 11.12109375 25.921875 C11.75076269 27.68462358 12.37969358 29.44763601 13.0078125 31.2109375 C13.3077713 32.04539398 13.6077301 32.87985046 13.91677856 33.73959351 C14.19061371 34.51694855 14.46444885 35.29430359 14.74658203 36.09521484 C15.11059616 37.119944 15.11059616 37.119944 15.48196411 38.16537476 C16 40 16 40 16 43 C5.77 43 -4.46 43 -15 43 C-13.21781249 37.05937497 -11.47632164 31.348902 -9.3359375 25.56640625 C-9.09839752 24.9217894 -8.86085754 24.27717255 -8.61611938 23.61302185 C-7.87190501 21.59512371 -7.12361586 19.57876882 -6.375 17.5625 C-5.62015836 15.52090885 -4.86616202 13.47900757 -4.11245728 11.43699646 C-3.43494331 9.60273967 -2.75537186 7.76924323 -2.07568359 5.93579102 C-1.35455414 3.96766082 -0.66283966 1.98851898 0 0 Z " fill="#F5F4F3" transform="translate(466,729)"/>
<path d="M0 0 C2.56030279 1.2801514 2.58827387 2.09707334 3.51220703 4.75366211 C3.93241623 5.94511086 3.93241623 5.94511086 4.3611145 7.16062927 C4.65702484 8.02414505 4.95293518 8.88766083 5.2578125 9.77734375 C5.56572723 10.65902725 5.87364197 11.54071075 6.19088745 12.44911194 C6.8414918 14.31667993 7.48853857 16.18549045 8.13232422 18.05541992 C9.12054653 20.92457004 10.11984144 23.78967117 11.12109375 26.65429688 C11.75065604 28.46591798 12.3795837 30.27775979 13.0078125 32.08984375 C13.3077713 32.9513353 13.6077301 33.81282684 13.91677856 34.70042419 C14.19061371 35.49787552 14.46444885 36.29532684 14.74658203 37.11694336 C15.11059616 38.17165077 15.11059616 38.17165077 15.48196411 39.24766541 C16 41 16 41 16 43 C5.77 43 -4.46 43 -15 43 C-13.15254454 36.84181513 -11.29838163 30.81860445 -9.08203125 24.8046875 C-8.81992355 24.08636749 -8.55781586 23.36804749 -8.2877655 22.62796021 C-7.46535592 20.37598293 -6.63901232 18.12547428 -5.8125 15.875 C-5.2477835 14.33082546 -4.68332832 12.78655533 -4.11914062 11.2421875 C-2.74910272 7.49368325 -1.37553937 3.74648876 0 0 Z " fill="#F9F9F8" transform="translate(876,729)"/>
<path d="M0 0 C2.56030279 1.2801514 2.58827387 2.09707334 3.51220703 4.75366211 C3.93241623 5.94511086 3.93241623 5.94511086 4.3611145 7.16062927 C4.65702484 8.02414505 4.95293518 8.88766083 5.2578125 9.77734375 C5.56572723 10.65902725 5.87364197 11.54071075 6.19088745 12.44911194 C6.8414918 14.31667993 7.48853857 16.18549045 8.13232422 18.05541992 C9.12054653 20.92457004 10.11984144 23.78967117 11.12109375 26.65429688 C11.75065604 28.46591798 12.3795837 30.27775979 13.0078125 32.08984375 C13.3077713 32.9513353 13.6077301 33.81282684 13.91677856 34.70042419 C14.19061371 35.49787552 14.46444885 36.29532684 14.74658203 37.11694336 C15.11059616 38.17165077 15.11059616 38.17165077 15.48196411 39.24766541 C16 41 16 41 16 43 C5.77 43 -4.46 43 -15 43 C-13.15254454 36.84181513 -11.29838163 30.81860445 -9.08203125 24.8046875 C-8.81992355 24.08636749 -8.55781586 23.36804749 -8.2877655 22.62796021 C-7.46535592 20.37598293 -6.63901232 18.12547428 -5.8125 15.875 C-5.2477835 14.33082546 -4.68332832 12.78655533 -4.11914062 11.2421875 C-2.74910272 7.49368325 -1.37553937 3.74648876 0 0 Z " fill="#F5F4F4" transform="translate(268,729)"/>
<path d="M0 0 C16.5 0 33 0 50 0 C50.495 1.98 50.495 1.98 51 4 C50.34 4 49.68 4 49 4 C49.66 6.64 50.32 9.28 51 12 C45.36733146 14.93846177 41.76219719 15.24819842 35.5625 14.1875 C34.83095703 14.07857422 34.09941406 13.96964844 33.34570312 13.85742188 C31.56107861 13.58914499 29.78006411 13.29703351 28 13 C28.20625 11.9275 28.4125 10.855 28.625 9.75 C29.35506826 5.82014819 29.35506826 5.82014819 27 2 C14.13 1.505 14.13 1.505 1 1 C1.33 36.64 1.66 72.28 2 109 C7.28 109 12.56 109 18 109 C18 95.14 18 81.28 18 67 C18.33 67 18.66 67 19 67 C19.33 81.52 19.66 96.04 20 111 C13.4 111 6.8 111 0 111 C0 74.37 0 37.74 0 0 Z " fill="#0A0A09" transform="translate(726,706)"/>
<path d="M0 0 C16.83 0 33.66 0 51 0 C51 0.33 51 0.66 51 1 C47.7 1.33 44.4 1.66 41 2 C40.34 3.98 39.68 5.96 39 8 C39.66 8.33 40.32 8.66 41 9 C38.69 8.67 36.38 8.34 34 8 C33.67 8.66 33.34 9.32 33 10 C33.99 10.33 34.98 10.66 36 11 C36 11.66 36 12.32 36 13 C40.95 13.33 45.9 13.66 51 14 C51 14.33 51 14.66 51 15 C33.51 15 16.02 15 -2 15 C1.35119519 12.76586987 2.4177755 12.76152238 6.32421875 12.8046875 C7.86625977 12.81435547 7.86625977 12.81435547 9.43945312 12.82421875 C10.51130859 12.84097656 11.58316406 12.85773437 12.6875 12.875 C13.77095703 12.88402344 14.85441406 12.89304687 15.97070312 12.90234375 C18.6473571 12.9259266 21.32356797 12.95883874 24 13 C24.42925781 12.03320312 24.42925781 12.03320312 24.8671875 11.046875 C26 9 26 9 28.125 8.25 C29.053125 8.12625 29.053125 8.12625 30 8 C29.34 7.67 28.68 7.34 28 7 C30.625 3.125 30.625 3.125 34 2 C22.78 1.67 11.56 1.34 0 1 C0 0.67 0 0.34 0 0 Z " fill="#1C1C1B" transform="translate(568,752)"/>
<path d="M0 0 C6.27 0 12.54 0 19 0 C19 15.18 19 30.36 19 46 C18.67 46 18.34 46 18 46 C18 31.15 18 16.3 18 1 C12.72 1 7.44 1 2 1 C2 15.19 2 29.38 2 44 C-0.56710516 45.28355258 -2.31195967 45.0818427 -5.18408203 45.02172852 C-6.26505157 45.00163223 -7.34602112 44.98153595 -8.45974731 44.96083069 C-9.63060883 44.93379562 -10.80147034 44.90676056 -12.0078125 44.87890625 C-13.8014473 44.84348976 -13.8014473 44.84348976 -15.63131714 44.80735779 C-19.46266154 44.73058708 -23.29381059 44.64662032 -27.125 44.5625 C-29.71743825 44.50929275 -32.30988613 44.45655228 -34.90234375 44.40429688 C-41.26835088 44.27495381 -47.63421213 44.13969726 -54 44 C-54 43.67 -54 43.34 -54 43 C-36.18 43 -18.36 43 0 43 C0 28.81 0 14.62 0 0 Z " fill="#262626" transform="translate(619,707)"/>
<path d="M0 0 C2.50357861 0.8345262 4.66785852 1.79371992 7 3 C7 3.99 7 4.98 7 6 C9.64 5.67 12.28 5.34 15 5 C9.08076491 10.91923509 -4.4041922 12.33968213 -12.5625 12.625 C-18.71431833 12.41015186 -23.08191685 10.64302455 -28 7 C-27.34 6.67 -26.68 6.34 -26 6 C-25.34 6.33 -24.68 6.66 -24 7 C-23.67 5.35 -23.34 3.7 -23 2 C-21.68 1.67 -20.36 1.34 -19 1 C-19.350625 1.94875 -19.70125 2.8975 -20.0625 3.875 C-21.35026777 6.87060172 -21.35026777 6.87060172 -20 9 C-16.57767028 10.14077657 -13.91326783 10.09815117 -10.3125 10.0625 C-9.13300781 10.05347656 -7.95351563 10.04445313 -6.73828125 10.03515625 C-5.83464844 10.02355469 -4.93101562 10.01195312 -4 10 C-4.33 8.02 -4.66 6.04 -5 4 C-4.01 3.34 -3.02 2.68 -2 2 C-1.34 1.34 -0.68 0.68 0 0 Z " fill="#C41611" transform="translate(370,316)"/>
<path d="M0 0 C0.93423645 3.01031744 1.04449911 3.86650268 0 7 C0.32441604 8.66842534 0.65939189 10.33480481 1 12 C1.03824623 14.33301986 1.04574284 16.66711508 1 19 C2.32 19.33 3.64 19.66 5 20 C3.52651292 23.42527887 1.59092154 25.64955058 -1.0625 28.25 C-1.77535156 28.95640625 -2.48820313 29.6628125 -3.22265625 30.390625 C-5 32 -5 32 -6 32 C-6 30.02 -6 28.04 -6 26 C-5.01 25.67 -4.02 25.34 -3 25 C-3 24.05125 -3 23.1025 -3 22.125 C-3 20.41666667 -3 18.70833333 -3 17 C-3.66 16.34 -4.32 15.68 -5 15 C-4.34 15 -3.68 15 -3 15 C-3.66 13.02 -4.32 11.04 -5 9 C-6.65 9.66 -8.3 10.32 -10 11 C-6.79239749 7.19364503 -3.59253891 3.45436433 0 0 Z " fill="#0F0F0E" transform="translate(161,719)"/>
<path d="M0 0 C0.33 0 0.66 0 1 0 C1.02683987 2.97922593 1.04676037 5.95821295 1.0625 8.9375 C1.07087891 9.78763672 1.07925781 10.63777344 1.08789062 11.51367188 C1.09111328 12.32255859 1.09433594 13.13144531 1.09765625 13.96484375 C1.10289307 14.7137085 1.10812988 15.46257324 1.11352539 16.23413086 C1 18 1 18 0 19 C-2.44830426 19.08843793 -4.86820599 19.11528752 -7.31640625 19.09765625 C-8.04746078 19.0962413 -8.77851532 19.09482635 -9.53172302 19.09336853 C-11.87535632 19.08775408 -14.21889539 19.07519922 -16.5625 19.0625 C-18.14778508 19.05748686 -19.73307166 19.05292363 -21.31835938 19.04882812 C-25.2122761 19.03777997 -29.10612205 19.02050572 -33 19 C-33.33 19.66 -33.66 20.32 -34 21 C-34 19.68 -34 18.36 -34 17 C-23.11 17 -12.22 17 -1 17 C-1 11.72 -1 6.44 -1 1 C-0.67 0.67 -0.34 0.34 0 0 Z " fill="#CACACA" transform="translate(412,706)"/>
<path d="M0 0 C4.51697977 3.68817614 6.39887178 8.56526447 8.75 13.75 C9.16121094 14.63816406 9.57242188 15.52632813 9.99609375 16.44140625 C11.00530234 18.6241132 12.00626334 20.81021666 13 23 C12.34 23.33 11.68 23.66 11 24 C8.69 19.38 6.38 14.76 4 10 C3.67 10.66 3.34 11.32 3 12 C-1.875 10.125 -1.875 10.125 -3 9 C-3.66 9.66 -4.32 10.32 -5 11 C-5.33 10.34 -5.66 9.68 -6 9 C-8.02463255 8.34786708 -8.02463255 8.34786708 -10 8 C-6.92000054 4.32769295 -4.7517398 3.43197635 0 3 C0 2.01 0 1.02 0 0 Z " fill="#C21511" transform="translate(774,395)"/>
<path d="M0 0 C6.93 0 13.86 0 21 0 C19.02 2.31 17.04 4.62 15 7 C14.34 8.32 13.68 9.64 13 11 C10.5 13.75 10.5 13.75 8 16 C7.34 16 6.68 16 6 16 C6 15.34 6 14.68 6 14 C6.66 14 7.32 14 8 14 C8.5259375 12.1128125 8.5259375 12.1128125 9.0625 10.1875 C9.25972656 9.47980469 9.45695313 8.77210938 9.66015625 8.04296875 C10.19563817 5.80755841 10.19563817 5.80755841 9 3 C9.33 2.34 9.66 1.68 10 1 C6.7 1 3.4 1 0 1 C0 0.67 0 0.34 0 0 Z " fill="#1A1919" transform="translate(174,707)"/>
<path d="M0 0 C0.33 0 0.66 0 1 0 C1 11.22 1 22.44 1 34 C10.9 34 20.8 34 31 34 C31 34.33 31 34.66 31 35 C29.89140625 35.04898438 28.7828125 35.09796875 27.640625 35.1484375 C26.17705935 35.22349215 24.71351888 35.29903881 23.25 35.375 C22.52039063 35.4059375 21.79078125 35.436875 21.0390625 35.46875 C17.24003936 35.67596944 14.24216698 35.93823362 11 38 C10.01 38.495 10.01 38.495 9 39 C8.67 39.99 8.34 40.98 8 42 C7.67 40.35 7.34 38.7 7 37 C4.69 36.34 2.38 35.68 0 35 C0 23.45 0 11.9 0 0 Z " fill="#040404" transform="translate(744,722)"/>
<path d="M0 0 C7.6264754 3.43443925 12.47204191 10.27821906 17 17.0625 C17.39791748 17.63967773 17.79583496 18.21685547 18.20581055 18.81152344 C20.89890733 23.00593405 21.40183742 26.07121287 21 31 C19.35 31.33 17.7 31.66 16 32 C15.04414716 28.2827945 15.09604295 25.71626787 16 22 C16 16.59327867 9.22219243 10.304773 5.6875 6.53125 C4.29586358 5.1594941 2.89089624 3.80103684 1.46875 2.4609375 C0.9840625 1.97882813 0.499375 1.49671875 0 1 C0 0.67 0 0.34 0 0 Z " fill="#C01310" transform="translate(689,488)"/>
<path d="M0 0 C7.26 0 14.52 0 22 0 C21.67 1.32 21.34 2.64 21 4 C20.34 3.34 19.68 2.68 19 2 C16.79749008 1.53993654 16.79749008 1.53993654 14.375 1.375 C13.55773437 1.30023437 12.74046875 1.22546875 11.8984375 1.1484375 C11.27195312 1.09945312 10.64546875 1.05046875 10 1 C9.34 2.65 8.68 4.3 8 6 C7.34 6 6.68 6 6 6 C6 6.66 6 7.32 6 8 C5.34 8 4.68 8 4 8 C4 7.34 4 6.68 4 6 C2.35 5.67 0.7 5.34 -1 5 C-0.67 3.35 -0.34 1.7 0 0 Z " fill="#191818" transform="translate(259,707)"/>
<path d="M0 0 C3.465 1.485 3.465 1.485 7 3 C6.01 4.485 6.01 4.485 5 6 C4.67 6.99 4.34 7.98 4 9 C3.34 9 2.68 9 2 9 C1.67 9.99 1.34 10.98 1 12 C0.34 10.02 -0.32 8.04 -1 6 C-6.28 6 -11.56 6 -17 6 C-17 5.67 -17 5.34 -17 5 C-16.02417969 4.97421875 -15.04835938 4.9484375 -14.04296875 4.921875 C-12.77066406 4.86515625 -11.49835937 4.8084375 -10.1875 4.75 C-8.92292969 4.70359375 -7.65835938 4.6571875 -6.35546875 4.609375 C-2.92847161 4.32743779 -2.92847161 4.32743779 -1.05078125 1.953125 C-0.70402344 1.30859375 -0.35726562 0.6640625 0 0 Z " fill="#0E0E0E" transform="translate(764,767)"/>
<path d="M0 0 C2.86495918 1.63711953 4.49094856 2.62617442 5.6484375 5.75 C6.10508125 8.67252001 5.85019298 11.30913841 5.5625 14.25 C5.46066406 15.32765625 5.35882812 16.4053125 5.25390625 17.515625 C5.17011719 18.33546875 5.08632813 19.1553125 5 20 C4.01 19.67 3.02 19.34 2 19 C2.03480469 18.02417969 2.06960938 17.04835938 2.10546875 16.04296875 C2.13253906 14.77066406 2.15960937 13.49835938 2.1875 12.1875 C2.22230469 10.92292969 2.25710938 9.65835937 2.29296875 8.35546875 C2.24940625 5.11347862 2.24940625 5.11347862 0.875 3.0625 C-1.85961416 1.51288531 -4.07276714 1.71202475 -7.1875 1.8125 C-8.81751953 1.85310547 -8.81751953 1.85310547 -10.48046875 1.89453125 C-11.31191406 1.92933594 -12.14335938 1.96414063 -13 2 C-8.75618144 -0.82921237 -4.98302125 -0.65168699 0 0 Z " fill="#C01512" transform="translate(599,281)"/>
<path d="M0 0 C0.33 1.32 0.66 2.64 1 4 C-9.23 4 -19.46 4 -30 4 C-30 3.67 -30 3.34 -30 3 C-28.35 2.67 -26.7 2.34 -25 2 C-25 1.67 -25 1.34 -25 1 C-21.20836402 0.8326303 -17.4166864 0.66622322 -13.625 0.5 C-12.54476562 0.45230469 -11.46453125 0.40460937 -10.3515625 0.35546875 C-9.3203125 0.31035156 -8.2890625 0.26523437 -7.2265625 0.21875 C-6.27346191 0.17685547 -5.32036133 0.13496094 -4.33837891 0.09179688 C-2.89304218 0.03505783 -1.44644999 0 0 0 Z " fill="#CCCBCB" transform="translate(891,768)"/>
<path d="M0 0 C0.598125 0.495 1.19625 0.99 1.8125 1.5 C3.97029994 3.28276418 3.97029994 3.28276418 7 3 C7.33 3.66 7.66 4.32 8 5 C7.34 5 6.68 5 6 5 C12.08132895 12.59431658 18.38970713 19.86529976 25 27 C24.67 27.66 24.34 28.32 24 29 C3.07686299 6.8479925 3.07686299 6.8479925 0 0 Z " fill="#0B0B0A" transform="translate(140,776)"/>
<path d="M0 0 C5.37305681 4.22985323 9.51740176 8.88910066 13.77734375 14.23046875 C16.73941291 17.92134227 19.85213979 21.46751378 23 25 C22.67 25.66 22.34 26.32 22 27 C19.36 24.03 16.72 21.06 14 18 C12.68 18.33 11.36 18.66 10 19 C10.27714844 18.30261719 10.55429688 17.60523438 10.83984375 16.88671875 C11.32650474 13.74826446 11.32650474 13.74826446 8.69140625 10.95703125 C7.66321935 9.89435034 6.61951608 8.84650968 5.5625 7.8125 C0 2.20934836 0 2.20934836 0 0 Z " fill="#0D0C0C" transform="translate(151,762)"/>
<path d="M0 0 C0.66 0.33 1.32 0.66 2 1 C0.02 3.97 0.02 3.97 -2 7 C-1.34 7 -0.68 7 0 7 C0.33 8.65 0.66 10.3 1 12 C0.01 12.495 0.01 12.495 -1 13 C-0.67 13.66 -0.34 14.32 0 15 C-3.875 13.125 -3.875 13.125 -5 12 C-5.51133273 6.80145059 -5.51133273 6.80145059 -5 4 C-2.5 1.5 -2.5 1.5 0 0 Z " fill="#C11612" transform="translate(685,345)"/>
<path d="M0 0 C3.84762566 3.4201117 6.60634022 7.46774256 9 12 C9 12.66 9 13.32 9 14 C1.41 14 -6.18 14 -14 14 C-13.67 13.34 -13.34 12.68 -13 12 C-12.20335937 12.01160156 -11.40671875 12.02320313 -10.5859375 12.03515625 C-2.74521011 12.11851557 -2.74521011 12.11851557 5 11 C4.6390625 10.37351562 4.278125 9.74703125 3.90625 9.1015625 C3.4421875 8.28429687 2.978125 7.46703125 2.5 6.625 C2.0359375 5.81289063 1.571875 5.00078125 1.09375 4.1640625 C0 2 0 2 0 0 Z " fill="#080807" transform="translate(800,803)"/>
<path d="M0 0 C0.66 0 1.32 0 2 0 C2.66 1.98 3.32 3.96 4 6 C-3.26 6 -10.52 6 -18 6 C-18.33 4.35 -18.66 2.7 -19 1 C-18.01 1.495 -18.01 1.495 -17 2 C-17 2.66 -17 3.32 -17 4 C-11.06 4 -5.12 4 1 4 C0.67 2.68 0.34 1.36 0 0 Z " fill="#080807" transform="translate(319,811)"/>
<path d="M0 0 C0.33 0 0.66 0 1 0 C1 10.89 1 21.78 1 33 C1.99 33 2.98 33 4 33 C4 33.66 4 34.32 4 35 C6.97 35 9.94 35 13 35 C13 35.33 13 35.66 13 36 C8.71 36 4.42 36 0 36 C0 24.12 0 12.24 0 0 Z " fill="#1D1D1D" transform="translate(546,779)"/>
<path d="M0 0 C0.66 0.33 1.32 0.66 2 1 C1.649375 1.78375 1.29875 2.5675 0.9375 3.375 C0.628125 4.24125 0.31875 5.1075 0 6 C0.33 6.66 0.66 7.32 1 8 C4.61867559 9.2062252 7.92506251 9.10816918 11.6875 9.0625 C12.38939453 9.05798828 13.09128906 9.05347656 13.81445312 9.04882812 C15.54300538 9.03706927 17.27151365 9.01913454 19 9 C13.89394403 12.40403732 7.95182009 11.66346046 2 11 C-1.32953223 9.72249231 -4.13891081 8.11932533 -7 6 C-6.34 5.67 -5.68 5.34 -5 5 C-4.34 5.33 -3.68 5.66 -3 6 C-2.814375 4.7934375 -2.814375 4.7934375 -2.625 3.5625 C-2.41875 2.716875 -2.2125 1.87125 -2 1 C-1.34 0.67 -0.68 0.34 0 0 Z " fill="#BE110E" transform="translate(349,317)"/>
<path d="M0 0 C0.99 0.66 1.98 1.32 3 2 C3.3984375 4.6796875 3.3984375 4.6796875 3.375 7.875 C3.38273437 8.92429687 3.39046875 9.97359375 3.3984375 11.0546875 C2.96373166 14.26810127 2.15808856 15.6363792 0 18 C-0.33 16.02 -0.66 14.04 -1 12 C-1.99 12 -2.98 12 -4 12 C-6.1875 11 -6.1875 11 -8 10 C-8 9.67 -8 9.34 -8 9 C-5.69 8.34 -3.38 7.68 -1 7 C-0.67 4.69 -0.34 2.38 0 0 Z " fill="#CC302B" transform="translate(465,530)"/>
<path d="M0 0 C0.99 0.33 1.98 0.66 3 1 C3 3.31 3 5.62 3 8 C-0.63 8.33 -4.26 8.66 -8 9 C-7.67 8.01 -7.34 7.02 -7 6 C-5.68 6 -4.36 6 -3 6 C-3 4.68 -3 3.36 -3 2 C-2.01 1.34 -1.02 0.68 0 0 Z " fill="#CA241E" transform="translate(549,467)"/>
<path d="M0 0 C1.32 0 2.64 0 4 0 C5.46845421 5.47332932 4.44038726 8.11922548 2 13 C1.01 12.34 0.02 11.68 -1 11 C-0.67 10.34 -0.34 9.68 0 9 C-0.13548999 7.0432081 -0.13548999 7.0432081 -0.5 4.9375 C-0.665 3.638125 -0.83 2.33875 -1 1 C-0.67 0.67 -0.34 0.34 0 0 Z " fill="#131313" transform="translate(180,708)"/>
<path d="M0 0 C0.33 0.66 0.66 1.32 1 2 C0.01196289 3.97119141 0.01196289 3.97119141 -1.52734375 6.3515625 C-2.07197266 7.20234375 -2.61660156 8.053125 -3.17773438 8.9296875 C-4.04881836 10.26386719 -4.04881836 10.26386719 -4.9375 11.625 C-5.8027832 12.97078125 -5.8027832 12.97078125 -6.68554688 14.34375 C-8.11660783 16.56721661 -9.5549815 18.78558887 -11 21 C-11.33 20.34 -11.66 19.68 -12 19 C-11.00352476 17.26420441 -10.00068333 15.52986519 -8.91015625 13.8515625 C-7.70590354 11.74557091 -7.70590354 11.74557091 -8 8 C-8.66 7.67 -9.32 7.34 -10 7 C-8.35 7 -6.7 7 -5 7 C-5 6.01 -5 5.02 -5 4 C-4.34 4 -3.68 4 -3 4 C-2.67 3.01 -2.34 2.02 -2 1 C-1.34 0.67 -0.68 0.34 0 0 Z " fill="#BD110F" transform="translate(508,435)"/>
<path d="M0 0 C0.33 0 0.66 0 1 0 C0.48400816 7.8822202 -1.0921453 15.34458305 -3 23 C-5.475 22.01 -5.475 22.01 -8 21 C-7.34 19.35 -6.68 17.7 -6 16 C-5.34 16 -4.68 16 -4 16 C-2.68 10.72 -1.36 5.44 0 0 Z " fill="#BE110E" transform="translate(640,386)"/>
<path d="M0 0 C0.99 1.485 0.99 1.485 2 3 C2.66 3 3.32 3 4 3 C4 3.66 4 4.32 4 5 C4.66 5.33 5.32 5.66 6 6 C4.625 7.5 4.625 7.5 3 9 C2.34 9 1.68 9 1 9 C1 15.6 1 22.2 1 29 C0.67 29 0.34 29 0 29 C0 19.43 0 9.86 0 0 Z " fill="#1C1C1C" transform="translate(546,749)"/>
<path d="M0 0 C0.99 0.33 1.98 0.66 3 1 C4.08242242 6.41211212 5.09891374 12.25271564 3 17.5 C2.67 17.995 2.34 18.49 2 19 C0.61773984 16.23547967 0.90474613 13.9538637 0.9375 10.875 C0.94652344 9.77929688 0.95554687 8.68359375 0.96484375 7.5546875 C0.97644531 6.71164062 0.98804688 5.86859375 1 5 C0.34 4.67 -0.32 4.34 -1 4 C-0.67 2.68 -0.34 1.36 0 0 Z " fill="#C62723" transform="translate(716,533)"/>
<path d="M0 0 C0.33 0.99 0.66 1.98 1 3 C1.66 3 2.32 3 3 3 C3.12375 3.804375 3.2475 4.60875 3.375 5.4375 C3.58125 6.283125 3.7875 7.12875 4 8 C4.66 8.33 5.32 8.66 6 9 C2.37 9.33 -1.26 9.66 -5 10 C-4.67 9.01 -4.34 8.02 -4 7 C-3.34 7 -2.68 7 -2 7 C-1.34 4.69 -0.68 2.38 0 0 Z M0 3 C1 5 1 5 1 5 Z " fill="#191919" transform="translate(418,806)"/>
<path d="M0 0 C0.66 0.33 1.32 0.66 2 1 C2.49532033 6.94384398 1.36967349 11.03699847 -2 16 C-4.75 18.5 -4.75 18.5 -7 20 C-6.67 19.4225 -6.34 18.845 -6 18.25 C-4.72924102 15.80116138 -4.72924102 15.80116138 -5 12 C-4 9.75 -4 9.75 -3 8 C-2.67 8.99 -2.34 9.98 -2 11 C-0.33657163 9.33657163 -0.63951903 7.2174291 -0.4375 4.9375 C-0.35371094 4.01839844 -0.26992188 3.09929687 -0.18359375 2.15234375 C-0.12300781 1.44207031 -0.06242188 0.73179687 0 0 Z " fill="#B90A09" transform="translate(543,380)"/>
<path d="M0 0 C4.3177458 0.50797009 8.03302114 1.19682779 12 3 C10 3.66666667 8 4.33333333 6 5 C5.01 6.485 5.01 6.485 4 8 C3.01 8 2.02 8 1 8 C0 1.125 0 1.125 0 0 Z " fill="#C21511" transform="translate(707,345)"/>
<path d="M0 0 C0.33 0.66 0.66 1.32 1 2 C0.02065076 3.67888441 -0.98343919 5.34338239 -2 7 C-2.226875 7.969375 -2.45375 8.93875 -2.6875 9.9375 C-4.60376086 14.40877534 -8.01496789 16.38656034 -12 19 C-10.70369101 16.30326081 -9.2862657 13.81034386 -7.6171875 11.328125 C-7.17246094 10.66425781 -6.72773437 10.00039063 -6.26953125 9.31640625 C-5.80933594 8.63449219 -5.34914063 7.95257812 -4.875 7.25 C-4.40707031 6.55261719 -3.93914063 5.85523438 -3.45703125 5.13671875 C-2.30677705 3.42307474 -1.15366914 1.71134684 0 0 Z " fill="#BD1210" transform="translate(566,534)"/>
<path d="M0 0 C1.12588014 0.95729916 2.2506715 1.91587895 3.375 2.875 C4.00148438 3.40867187 4.62796875 3.94234375 5.2734375 4.4921875 C6.55836651 5.61432007 7.79371975 6.79371975 9 8 C8.67 8.99 8.34 9.98 8 11 C7.608125 10.360625 7.21625 9.72125 6.8125 9.0625 C4.55673965 6.49560029 3.30252868 6.55042145 0 6 C-2.8125 4.5 -2.8125 4.5 -5 3 C-5 2.67 -5 2.34 -5 2 C-3.35 2 -1.7 2 0 2 C0 1.34 0 0.68 0 0 Z " fill="#C21611" transform="translate(663,261)"/>
<path d="M0 0 C0.33 0 0.66 0 1 0 C0.56699236 6.81987029 -0.90787824 11.91643021 -4 18 C-5 16 -5 16 -4.5 13.625 C-3.80525704 11.064621 -3.80525704 11.064621 -4.625 8.875 C-4.74875 8.25625 -4.8725 7.6375 -5 7 C-3.6875 5.25 -3.6875 5.25 -2 4 C-1.34 4 -0.68 4 0 4 C0 2.68 0 1.36 0 0 Z " fill="#C0120F" transform="translate(534,177)"/>
<path d="M0 0 C0.66 0.33 1.32 0.66 2 1 C1.67 1.66 1.34 2.32 1 3 C1.99 3 2.98 3 4 3 C4.33 3.99 4.66 4.98 5 6 C2.35261084 7.4606285 1.10551666 8 -2 8 C-2.33 8.99 -2.66 9.98 -3 11 C-3.33 10.34 -3.66 9.68 -4 9 C-3.22265625 6.8359375 -3.22265625 6.8359375 -2.0625 4.375 C-1.68222656 3.55773437 -1.30195313 2.74046875 -0.91015625 1.8984375 C-0.60980469 1.27195312 -0.30945313 0.64546875 0 0 Z " fill="#C21510" transform="translate(446,475)"/>
<path d="M0 0 C2.4375 0.75 2.4375 0.75 5 2 C5.9375 4 5.9375 4 6 6 C5.34 6.66 4.68 7.32 4 8 C2.68 8 1.36 8 0 8 C-1 5 -1 5 -1 2 C-0.67 1.34 -0.34 0.68 0 0 Z " fill="#191919" transform="translate(872,724)"/>
<path d="M0 0 C0.33 0 0.66 0 1 0 C1.103125 1.0725 1.20625 2.145 1.3125 3.25 C1.97400493 6.85820872 2.57483421 8.36395023 5 11 C3.68 11.33 2.36 11.66 1 12 C1.20625 12.7425 1.4125 13.485 1.625 14.25 C2 17 2 17 0 21 C0 14.07 0 7.14 0 0 Z " fill="#1C1B1B" transform="translate(359,724)"/>
<path d="M0 0 C0.99 0.33 1.98 0.66 3 1 C2.67 2.32 2.34 3.64 2 5 C2.99 5.33 3.98 5.66 5 6 C3 8 3 8 0.8359375 8.1953125 C-0.38222656 8.16050781 -0.38222656 8.16050781 -1.625 8.125 C-2.44226563 8.10695313 -3.25953125 8.08890625 -4.1015625 8.0703125 C-4.72804688 8.04710937 -5.35453125 8.02390625 -6 8 C-6 7.67 -6 7.34 -6 7 C-4.35 7 -2.7 7 -1 7 C-1.20625 6.401875 -1.4125 5.80375 -1.625 5.1875 C-2 3 -2 3 0 0 Z " fill="#C4130F" transform="translate(553,468)"/>
<path d="M0 0 C2.31 0.33 4.62 0.66 7 1 C4.19195732 3.96404505 1.81684226 6.44499019 -2 8 C-1.34 5.36 -0.68 2.72 0 0 Z " fill="#C11510" transform="translate(340,486)"/>
<path d="M0 0 C0.33 0.66 0.66 1.32 1 2 C0.14453125 4.3125 0.14453125 4.3125 -1.1875 7 C-1.61417969 7.886875 -2.04085938 8.77375 -2.48046875 9.6875 C-4.12049388 12.18337372 -5.2451887 12.96178418 -8 14 C-6.6744419 10.37723685 -5.05653045 7.36494652 -2.875 4.1875 C-2.33617187 3.39730469 -1.79734375 2.60710937 -1.2421875 1.79296875 C-0.83226562 1.20128906 -0.42234375 0.60960937 0 0 Z " fill="#BF1410" transform="translate(393,373)"/>
<path d="M0 0 C0 0.33 0 0.66 0 1 C-1.98 1 -3.96 1 -6 1 C-6 1.66 -6 2.32 -6 3 C-8.3125 4.6875 -8.3125 4.6875 -11 6 C-11.99 5.67 -12.98 5.34 -14 5 C-13 2 -13 2 -10.9375 0.8125 C-7.14524878 -0.23642055 -3.92937998 -0.13319932 0 0 Z " fill="#BF1311" transform="translate(480,125)"/>
<path d="M0 0 C1.65 0 3.3 0 5 0 C5 0.66 5 1.32 5 2 C5.66 2.33 6.32 2.66 7 3 C4.33333333 4.33333333 1.66666667 5.66666667 -1 7 C-1 3 -1 3 0 0 Z " fill="#C8201B" transform="translate(369,320)"/>
<path d="M0 0 C0.99 0.99 1.98 1.98 3 3 C2.67 3.99 2.34 4.98 2 6 C0.58249437 5.88490339 -0.83401169 5.75746342 -2.25 5.625 C-3.03890625 5.55539062 -3.8278125 5.48578125 -4.640625 5.4140625 C-7.085877 4.98492887 -8.84836903 4.21399362 -11 3 C-9.1128125 3.0928125 -9.1128125 3.0928125 -7.1875 3.1875 C-3.83041021 3.23632922 -3.83041021 3.23632922 -1 1.5 C-0.67 1.005 -0.34 0.51 0 0 Z " fill="#C0120F" transform="translate(574,474)"/>
<path d="M0 0 C0.99 0 1.98 0 3 0 C3 0.99 3 1.98 3 3 C3.66 3.33 4.32 3.66 5 4 C4.67 5.98 4.34 7.96 4 10 C1.2027092 7.93243723 0.97307727 6.85559629 0.3125 3.3125 C0.209375 2.219375 0.10625 1.12625 0 0 Z " fill="#C62421" transform="translate(465,384)"/>
<path d="M0 0 C0.66 0.33 1.32 0.66 2 1 C-1.465 3.97 -1.465 3.97 -5 7 C-6.32 6.34 -7.64 5.68 -9 5 C-9 4.01 -9 3.02 -9 2 C-6.66666667 2 -4.33333333 2 -2 2 C-1.34 1.34 -0.68 0.68 0 0 Z " fill="#C11310" transform="translate(573,592)"/>
<path d="M0 0 C1.62580966 0.11398665 3.25067157 0.24155659 4.875 0.375 C5.77992188 0.44460938 6.68484375 0.51421875 7.6171875 0.5859375 C10 1 10 1 12 3 C4.375 4.25 4.375 4.25 1 2 C0.67 1.34 0.34 0.68 0 0 Z " fill="#C42623" transform="translate(694,563)"/>
<path d="M0 0 C0.66 0 1.32 0 2 0 C1.6875 1.875 1.6875 1.875 1 4 C-2.4352048 6.29013653 -3.985331 6.17842973 -8 6 C-6.68 4.35 -5.36 2.7 -4 1 C-3.34 1.33 -2.68 1.66 -2 2 C-1.34 1.34 -0.68 0.68 0 0 Z " fill="#C1130E" transform="translate(554,554)"/>
<path d="M0 0 C2 1 2 1 3.125 4.0625 C3.41375 5.031875 3.7025 6.00125 4 7 C2.125 8.0625 2.125 8.0625 0 9 C-0.66 8.67 -1.32 8.34 -2 8 C-1.34 5.36 -0.68 2.72 0 0 Z " fill="#F2F3F2" transform="translate(466,729)"/>
<path d="M0 0 C0 0.99 0 1.98 0 3 C0.66 3.66 1.32 4.32 2 5 C1.01 5.99 0.02 6.98 -1 8 C-2.32 6.35 -3.64 4.7 -5 3 C-3.7124791 0.4249582 -2.85933002 0 0 0 Z " fill="#C21612" transform="translate(687,551)"/>
<path d="M0 0 C-0.04125 0.886875 -0.0825 1.77375 -0.125 2.6875 C-0.00102754 5.97277013 0.61387904 8.05449295 2 11 C-1.39417765 7.87378374 -3.6062718 5.43458973 -5 1 C-2 0 -2 0 0 0 Z " fill="#BF1613" transform="translate(679,540)"/>
<path d="M0 0 C2.12472576 -0.05386629 4.24983652 -0.09273071 6.375 -0.125 C7.55835938 -0.14820313 8.74171875 -0.17140625 9.9609375 -0.1953125 C13 0 13 0 15 2 C13.68 2 12.36 2 11 2 C10.67 2.99 10.34 3.98 10 5 C9.34 5 8.68 5 8 5 C8 4.01 8 3.02 8 2 C5.36 1.67 2.72 1.34 0 1 C0 0.67 0 0.34 0 0 Z " fill="#BB0F0C" transform="translate(691,343)"/>
<path d="M0 0 C1.79133978 -0.05391993 3.58313899 -0.09275571 5.375 -0.125 C6.37273437 -0.14820313 7.37046875 -0.17140625 8.3984375 -0.1953125 C11 0 11 0 13 2 C12.01 2.99 11.02 3.98 10 5 C5.05 3.02 5.05 3.02 0 1 C0 0.67 0 0.34 0 0 Z " fill="#CB2722" transform="translate(350,274)"/>
<path d="M0 0 C0.33 0.99 0.66 1.98 1 3 C0.34 3.66 -0.32 4.32 -1 5 C-0.67 3.35 -0.34 1.7 0 0 Z M-3 3 C-2.34 3.66 -1.68 4.32 -1 5 C-1.2421875 7.1640625 -1.2421875 7.1640625 -1.875 9.625 C-2.07867187 10.44226563 -2.28234375 11.25953125 -2.4921875 12.1015625 C-2.65976562 12.72804687 -2.82734375 13.35453125 -3 14 C-5 11 -5 11 -4.7578125 8.95703125 C-4.171875 6.97135417 -3.5859375 4.98567708 -3 3 Z " fill="#C82521" transform="translate(465,206)"/>
<path d="M0 0 C3 2 3 2 4 4 C2.02 4.66 0.04 5.32 -2 6 C-1.34 7.98 -0.68 9.96 0 12 C-0.99 12.495 -0.99 12.495 -2 13 C-3.41000664 10.17998673 -3.24548451 8.12992745 -3 5 C-1.5 2.125 -1.5 2.125 0 0 Z " fill="#CC241E" transform="translate(465,128)"/>
<path d="M0 0 C2.86207152 1.28299758 5.0245088 2.530636 7 5 C7 5.99 7 6.98 7 8 C5.35 8.33 3.7 8.66 2 9 C2.04125 8.071875 2.0825 7.14375 2.125 6.1875 C2.27136339 2.84190281 2.27136339 2.84190281 0 0 Z " fill="#C2110E" transform="translate(678,478)"/>
<path d="M0 0 C0.66 0 1.32 0 2 0 C1.25 4.75 1.25 4.75 -1 7 C-3.625 7.125 -3.625 7.125 -6 7 C-6.33 6.34 -6.66 5.68 -7 5 C-5.5459375 4.5978125 -5.5459375 4.5978125 -4.0625 4.1875 C-3.051875 3.795625 -2.04125 3.40375 -1 3 C-0.67 2.01 -0.34 1.02 0 0 Z " fill="#C21510" transform="translate(539,467)"/>
<path d="M0 0 C0.33 0.99 0.66 1.98 1 3 C1.66 3 2.32 3 3 3 C2.855625 3.804375 2.71125 4.60875 2.5625 5.4375 C1.90311661 9.61359481 1.43908647 13.79598059 1 18 C0.67 18 0.34 18 0 18 C0 12.06 0 6.12 0 0 Z " fill="#1B1B1B" transform="translate(109,715)"/>
<path d="M0 0 C2.34058637 2.12780579 3.70700306 4.11562221 5 7 C4.01 8.485 4.01 8.485 3 10 C2.731875 9.030625 2.46375 8.06125 2.1875 7.0625 C1.795625 6.051875 1.40375 5.04125 1 4 C0.01 3.67 -0.98 3.34 -2 3 C-1 1 -1 1 0 0 Z " fill="#1A1A19" transform="translate(916,784)"/>
<path d="M0 0 C2 3 2 3 2 7 C1.67 7.66 1.34 8.32 1 9 C0.01 8.34 -0.98 7.68 -2 7 C-2.66 7 -3.32 7 -4 7 C-3.43628586 3.73045798 -2.50037734 2.17424117 0 0 Z " fill="#1A1919" transform="translate(478,707)"/>
<path d="M0 0 C-0.66 0 -1.32 0 -2 0 C-2.66 1.32 -3.32 2.64 -4 4 C-4.66 3.67 -5.32 3.34 -6 3 C-6 2.34 -6 1.68 -6 1 C-8.64 1 -11.28 1 -14 1 C-14 0.67 -14 0.34 -14 0 C-12.41773035 -0.19627391 -10.83410729 -0.38165538 -9.25 -0.5625 C-8.36828125 -0.66691406 -7.4865625 -0.77132812 -6.578125 -0.87890625 C-4.11567549 -0.99456676 -2.33461936 -0.73638695 0 0 Z " fill="#CC241F" transform="translate(519,576)"/>
<path d="M0 0 C1.21386936 3.64160808 0.6674695 4.33165469 -0.9375 7.6875 C-1.31777344 8.49574219 -1.69804688 9.30398438 -2.08984375 10.13671875 C-2.39019531 10.75160156 -2.69054687 11.36648438 -3 12 C-4.0516399 8.84508031 -3.98032423 7.96644412 -3.1875 4.875 C-3.01605469 4.17117188 -2.84460938 3.46734375 -2.66796875 2.7421875 C-2 1 -2 1 0 0 Z " fill="#BD100D" transform="translate(614,533)"/>
<path d="M0 0 C-0.33 0.99 -0.66 1.98 -1 3 C-1.66 2.67 -2.32 2.34 -3 2 C-3.33 2.66 -3.66 3.32 -4 4 C-5.32 3.34 -6.64 2.68 -8 2 C-8 1.34 -8 0.68 -8 0 C-4.94736336 -0.98120464 -3.05263664 -0.98120464 0 0 Z " fill="#C82622" transform="translate(508,367)"/>
<path d="M0 0 C1.32 0 2.64 0 4 0 C3.1875 3.4375 3.1875 3.4375 2 7 C1.01 7.33 0.02 7.66 -1 8 C-1 5.16032769 -0.59732819 2.76264289 0 0 Z " fill="#CA251F" transform="translate(447,251)"/>
<path d="M0 0 C0.928125 0.2784375 0.928125 0.2784375 1.875 0.5625 C4.04160178 1.23686176 4.04160178 1.23686176 6 0 C6.268125 0.598125 6.53625 1.19625 6.8125 1.8125 C7.98493467 3.97224808 9.19369282 5.35790256 11 7 C6.89188572 5.55007731 3.53144334 3.54592427 0 1 C0 0.67 0 0.34 0 0 Z " fill="#BE0D0B" transform="translate(625,499)"/>
<path d="M0 0 C1.125 1.625 1.125 1.625 2 4 C1.125 7.25 1.125 7.25 0 10 C-0.99 10 -1.98 10 -3 10 C-2.690625 9.0925 -2.38125 8.185 -2.0625 7.25 C-1.2727737 4.83436662 -0.57050703 2.47219715 0 0 Z " fill="#191919" transform="translate(847,800)"/>
<path d="M0 0 C0.93065133 2.60582371 1.14917407 3.64198224 0.0625 6.25 C-0.4634375 7.11625 -0.4634375 7.11625 -1 8 C-1.268125 7.360625 -1.53625 6.72125 -1.8125 6.0625 C-2.88667752 3.66868314 -2.88667752 3.66868314 -6 3 C-3.375 0 -3.375 0 0 0 Z " fill="#191918" transform="translate(895,722)"/>
<path d="M0 0 C1.5 1.3125 1.5 1.3125 3 3 C3 3.99 3 4.98 3 6 C0.625 5.6875 0.625 5.6875 -2 5 C-2.66 4.01 -3.32 3.02 -4 2 C-2.68 1.34 -1.36 0.68 0 0 Z " fill="#BE120E" transform="translate(693,559)"/>
<path d="M0 0 C-1 3 -1 3 -3.0625 4.1875 C-3.701875 4.455625 -4.34125 4.72375 -5 5 C-5 4.34 -5 3.68 -5 3 C-5.99 2.34 -6.98 1.68 -8 1 C-3.375 -1.125 -3.375 -1.125 0 0 Z " fill="#C1120F" transform="translate(490,372)"/>
<path d="M0 0 C0.66 0.66 1.32 1.32 2 2 C1.01 2.33 0.02 2.66 -1 3 C-0.67 2.01 -0.34 1.02 0 0 Z M-4 1 C-3.67 1.66 -3.34 2.32 -3 3 C-2.01 3.33 -1.02 3.66 0 4 C-0.66 4.66 -1.32 5.32 -2 6 C-2.66 7.32 -3.32 8.64 -4 10 C-4 7.03 -4 4.06 -4 1 Z " fill="#090908" transform="translate(791,734)"/>
<path d="M0 0 C2 3 2 3 2 5 C1.401875 5.12375 0.80375 5.2475 0.1875 5.375 C-2.26231348 5.95475985 -2.26231348 5.95475985 -5 8 C-3.8141763 4.62496331 -2.72426311 2.35277269 0 0 Z " fill="#C01613" transform="translate(364,416)"/>
<path d="M0 0 C1.5 1.375 1.5 1.375 3 3 C3 3.66 3 4.32 3 5 C3.99 5.33 4.98 5.66 6 6 C6 7.32 6 8.64 6 10 C5.34 10 4.68 10 4 10 C3.32845067 8.71086513 2.66291141 7.41859796 2 6.125 C1.62875 5.40570313 1.2575 4.68640625 0.875 3.9453125 C0 2 0 2 0 0 Z " fill="#BF1512" transform="translate(734,411)"/>
<path d="M0 0 C1.54571278 2.31856917 2.79618552 4.50638429 4 7 C2.35 7.66 0.7 8.32 -1 9 C-2.0326802 6.21176345 -2.04509293 5.1322726 -1.0625 2.25 C-0.711875 1.5075 -0.36125 0.765 0 0 Z " fill="#C82724" transform="translate(483,399)"/>
<path d="M0 0 C2 2 2 2 2.4375 4.875 C2 8 2 8 -0.5 10.375 C-1.325 10.91125 -2.15 11.4475 -3 12 C-2.67 11.4225 -2.34 10.845 -2 10.25 C-0.72924102 7.80116138 -0.72924102 7.80116138 -1 4 C-0.7018576 2.65835921 -0.37756808 1.32148827 0 0 Z " fill="#C0120D" transform="translate(539,388)"/>
<path d="M0 0 C0.33 0.66 0.66 1.32 1 2 C1.99 2 2.98 2 4 2 C4 1.34 4 0.68 4 0 C6.97 0.495 6.97 0.495 10 1 C6.79619983 3.13586678 5.98060033 3.23132175 2.3125 3.125 C1.10013672 3.09792969 1.10013672 3.09792969 -0.13671875 3.0703125 C-1.05904297 3.03550781 -1.05904297 3.03550781 -2 3 C-1.34 2.01 -0.68 1.02 0 0 Z " fill="#CB241D" transform="translate(356,324)"/>
<path d="M0 0 C1.6415049 3.2830098 0.51888624 6.42545033 0 10 C-0.33 10 -0.66 10 -1 10 C-1.33 8.35 -1.66 6.7 -2 5 C-4.97 4.505 -4.97 4.505 -8 4 C-8 3.67 -8 3.34 -8 3 C-6.865625 2.690625 -5.73125 2.38125 -4.5625 2.0625 C-1.21224901 1.37075469 -1.21224901 1.37075469 0 0 Z " fill="#BC0906" transform="translate(424,310)"/>
<path d="M0 0 C2.64 0.33 5.28 0.66 8 1 C7.67 1.66 7.34 2.32 7 3 C6.34 2.67 5.68 2.34 5 2 C5 3.65 5 5.3 5 7 C4.34 6.01 3.68 5.02 3 4 C2.01 3.34 1.02 2.68 0 2 C0 1.34 0 0.68 0 0 Z " fill="#CA2721" transform="translate(576,234)"/>
<path d="M0 0 C0.66 1.32 1.32 2.64 2 4 C0.42105792 6.36841312 -0.9754262 8.06745228 -3 10 C-2.49287967 6.28111761 -1.88391785 3.26545761 0 0 Z " fill="#1C1C1B" transform="translate(255,758)"/>
<path d="M0 0 C0.99 0.33 1.98 0.66 3 1 C3 3.64 3 6.28 3 9 C2.01 8.67 1.02 8.34 0 8 C0 5.36 0 2.72 0 0 Z " fill="#C72C28" transform="translate(594,370)"/>
<path d="M0 0 C3 3.625 3 3.625 3 7 C2.01 7 1.02 7 0 7 C-0.38133299 5.0085944 -0.71325582 3.00720923 -1 1 C-0.67 0.67 -0.34 0.34 0 0 Z " fill="#F1F1F1" transform="translate(508,778)"/>
<path d="M0 0 C0.66 0.99 1.32 1.98 2 3 C0.35 4.32 -1.3 5.64 -3 7 C-3.66 6.34 -4.32 5.68 -5 5 C-4.01 4.67 -3.02 4.34 -2 4 C-2 3.34 -2 2.68 -2 2 C-1.34 2 -0.68 2 0 2 C0 1.34 0 0.68 0 0 Z " fill="#202020" transform="translate(799,757)"/>
<path d="M0 0 C0.99 0.33 1.98 0.66 3 1 C2.34 2.32 1.68 3.64 1 5 C-0.32 4.34 -1.64 3.68 -3 3 C-2.01 2.01 -1.02 1.02 0 0 Z " fill="#212020" transform="translate(135,746)"/>
<path d="M0 0 C0.66 0.33 1.32 0.66 2 1 C2.625 4.0625 2.625 4.0625 3 7 C2.01 7 1.02 7 0 7 C-0.93423645 3.98968256 -1.04449911 3.13349732 0 0 Z " fill="#F1F2F1" transform="translate(268,729)"/>
<path d="M0 0 C2.31 0.66 4.62 1.32 7 2 C7 2.66 7 3.32 7 4 C5.35 4 3.7 4 2 4 C1.34 2.68 0.68 1.36 0 0 Z " fill="#C01410" transform="translate(634,455)"/>
<path d="M0 0 C0.33 0.66 0.66 1.32 1 2 C1.66 2.33 2.32 2.66 3 3 C1.68 3.99 0.36 4.98 -1 6 C-1.66 4.68 -2.32 3.36 -3 2 C-2.01 2 -1.02 2 0 2 C0 1.34 0 0.68 0 0 Z " fill="#C82622" transform="translate(393,440)"/>
</svg>
